<svg width="357" height="25" viewBox="0 0 357 25" fill="none" xmlns="http://www.w3.org/2000/svg">
<g clip-path="url(#clip0_45_158)">
<path d="M27.2598 4.31998C24.1998 -2.77002 14.9298 -0.0800152 13.9998 4.78998C13.0698 -0.0700154 3.78977 -2.76002 0.739774 4.31998C-3.78023 14.8 13.9998 24.83 13.9998 24.83C13.9998 24.83 31.7798 14.8 27.2598 4.32998V4.31998Z" fill="#FE0000"/>
<path d="M20 11H15V6H13V11H8V13H13V18H15V13H20V11Z" fill="white"/>
<path d="M41.46 20.7799V4.78992H51.34V6.02992H42.74V20.7699H41.46V20.7799Z" fill="#FE0000"/>
<path d="M62.9904 19.5299V20.7699H53.1104V4.78992H62.9904V6.02992H54.3904V12.0999H61.6604V13.3399H54.3904V19.5199H62.9904V19.5299Z" fill="#FE0000"/>
<path d="M66.9404 20.7799H65.6504V4.78992H66.9404L76.2004 18.4999V4.78992H77.4904V20.7699H76.2004L66.9404 7.03992V20.7699V20.7799Z" fill="#FE0000"/>
<path d="M80.8096 20.7799V4.78992H82.0896V20.7699H80.8096V20.7799Z" fill="#FE0000"/>
<path d="M85.4104 20.7799V4.78992H86.6904V12.3799L94.2904 4.78992H95.9804L88.3304 12.4699L96.6404 20.7699H94.9304L86.6804 12.5999V20.7699H85.4004L85.4104 20.7799Z" fill="#FE0000"/>
<path d="M96.5996 12.78C96.5996 7.88996 99.0896 4.45996 103.87 4.45996C108.65 4.45996 111.13 7.88996 111.13 12.78C111.13 17.67 108.64 21.1 103.87 21.1C99.0996 21.1 96.5996 17.67 96.5996 12.78ZM109.76 12.78C109.76 8.61996 107.8 5.70996 103.87 5.70996C99.9396 5.69996 97.9996 8.61996 97.9696 12.78C97.9396 16.94 99.9496 19.85 103.87 19.85C107.8 19.86 109.76 16.94 109.76 12.78Z" fill="#FE0000"/>
<path d="M119.07 20.7799H117.78V4.78992H119.07L128.33 18.4999V4.78992H129.62V20.7699H128.33L119.07 7.03992V20.7699V20.7799Z" fill="#FE0000"/>
<path d="M131.83 12.78C131.83 7.88996 134.32 4.45996 139.1 4.45996C143.88 4.45996 146.36 7.88996 146.36 12.78C146.36 17.67 143.87 21.1 139.1 21.1C134.33 21.1 131.83 17.67 131.83 12.78ZM144.99 12.78C144.99 8.61996 143.03 5.70996 139.1 5.70996C135.17 5.69996 133.23 8.61996 133.2 12.78C133.17 16.94 135.18 19.85 139.1 19.85C143.03 19.86 144.99 16.94 144.99 12.78Z" fill="#FE0000"/>
<path d="M148.57 20.7799V19.5899L155.26 12.7899L148.57 6.02993V4.79993H160V6.03993H150.5L156.99 12.6099V12.9699L150.5 19.5399H159.65V20.7799H148.57Z" fill="#FE0000"/>
<path d="M162.22 12.78C162.22 7.88996 164.71 4.45996 169.49 4.45996C174.27 4.45996 176.75 7.88996 176.75 12.78C176.75 17.67 174.26 21.1 169.49 21.1C164.72 21.1 162.22 17.67 162.22 12.78ZM175.38 12.78C175.38 8.61996 173.42 5.70996 169.49 5.70996C165.56 5.69996 163.62 8.61996 163.59 12.78C163.56 16.94 165.57 19.85 169.49 19.85C173.42 19.86 175.38 16.94 175.38 12.78Z" fill="#FE0000"/>
<path d="M178.96 20.7799V4.78992H180.24V12.3799L187.84 4.78992H189.53L181.88 12.4699L190.19 20.7699H188.48L180.23 12.5999V20.7699H178.95L178.96 20.7799Z" fill="#FE0000"/>
<path d="M190.16 12.78C190.16 7.88996 192.65 4.45996 197.43 4.45996C202.21 4.45996 204.69 7.88996 204.69 12.78C204.69 17.67 202.2 21.1 197.43 21.1C192.66 21.1 190.16 17.67 190.16 12.78ZM203.32 12.78C203.32 8.61996 201.36 5.70996 197.43 5.70996C193.5 5.69996 191.56 8.61996 191.53 12.78C191.5 16.94 193.51 19.85 197.43 19.85C201.36 19.86 203.32 16.94 203.32 12.78Z" fill="#FE0000"/>
<path d="M206.9 20.7799V4.78992H208.09L214.64 18.9299L221.12 4.78992H222.35V20.7499H221.1V7.73992L215.15 20.7799H214.11L208.15 7.73992V20.7799H206.91H206.9Z" fill="#FE0000"/>
<path d="M235.33 19.5299V20.7699H225.45V4.78992H235.33V6.02992H226.73V12.0999H234V13.3399H226.73V19.5199H235.33V19.5299Z" fill="#FE0000"/>
<path d="M238.21 20.7799V4.78992H239.49V20.7699H238.21V20.7799Z" fill="#FE0000"/>
<path d="M241.93 12.78C241.93 7.88996 244.42 4.45996 249.2 4.45996C253.98 4.45996 256.46 7.88996 256.46 12.78C256.46 17.67 253.97 21.1 249.2 21.1C244.43 21.1 241.93 17.67 241.93 12.78ZM255.09 12.78C255.09 8.61996 253.13 5.70996 249.2 5.70996C245.27 5.69996 243.33 8.61996 243.3 12.78C243.27 16.94 245.28 19.85 249.2 19.85C253.13 19.86 255.09 16.94 255.09 12.78Z" fill="#FE0000"/>
<path d="M263.11 20.7799V4.78992H264.39V12.3799L271.99 4.78992H273.68L266.03 12.4699L274.34 20.7699H272.63L264.38 12.5999V20.7699H263.1L263.11 20.7799Z" fill="#FE0000"/>
<path d="M280.44 4.78992H282.03L287.69 20.7699H286.34L284.91 16.7499H277.55L276.14 20.7699H274.79L280.45 4.78992H280.44ZM277.98 15.5399H284.48L281.22 6.36992L277.98 15.5399Z" fill="#FE0000"/>
<path d="M300.96 16.3799C300.96 19.1299 298.97 20.7699 296.27 20.7699H289.69V4.78992H295.81C298.31 4.78992 300.18 6.51992 300.18 8.80992C300.18 10.2799 299.41 11.5999 298.22 12.2699C299.92 13.0099 300.97 14.4299 300.97 16.3799H300.96ZM290.97 6.02992V11.7599H295.79C297.47 11.7599 298.83 10.4899 298.83 8.76992C298.83 7.04992 297.52 6.02992 295.79 6.02992H290.97ZM295.84 19.5299C297.97 19.5299 299.59 18.3999 299.59 16.4399C299.59 14.4799 298.1 12.9899 296.2 12.9899H290.96V19.5299H295.83H295.84Z" fill="#FE0000"/>
<path d="M307.7 4.78992H309.29L314.95 20.7699H313.6L312.17 16.7499H304.81L303.4 20.7699H302.05L307.71 4.78992H307.7ZM305.24 15.5399H311.74L308.48 6.36992L305.24 15.5399Z" fill="#FE0000"/>
<path d="M322.02 4.78992H323.61L329.27 20.7699H327.92L322.8 6.38992L317.72 20.7699H316.37L322.03 4.78992H322.02Z" fill="#FE0000"/>
<path d="M336.33 4.78992H337.92L343.58 20.7699H342.23L340.8 16.7499H333.44L332.03 20.7699H330.68L336.34 4.78992H336.33ZM333.87 15.5399H340.37L337.11 6.36992L333.87 15.5399Z" fill="#FE0000"/>
<path d="M345.57 20.7799V19.5899L352.26 12.7899L345.57 6.02993V4.79993H357V6.03993H347.5L353.99 12.6099V12.9699L347.5 19.5399H356.65V20.7799H345.57Z" fill="#FE0000"/>
</g>
<defs>
<clipPath id="clip0_45_158">
<rect width="357" height="24.83" fill="white"/>
</clipPath>
</defs>
</svg>
