<?xml version="1.0" encoding="UTF-8"?><svg id="Layer_1" xmlns="http://www.w3.org/2000/svg" viewBox="0 0 35 31"><defs><style>.cls-1{fill:#fe0000;}</style></defs><path class="cls-1" d="m34.66,16.96l-4.62-13.27c-.95-2.73-3.96-4.18-6.69-3.23L3.57,7.35h0c-1.32.46-2.39,1.41-3,2.67s-.69,2.69-.23,4.01l4.62,13.27c.75,2.16,2.79,3.52,4.96,3.52.57,0,1.15-.09,1.72-.29l19.78-6.89c1.32-.46,2.39-1.41,3-2.67s.69-2.69.23-4.01ZM24.17,2.82c.23-.08.47-.12.7-.14l-5.84,9.85c-.93,1.57-2.85,2.24-4.56,1.59L3.76,10.04c.2-.13.41-.25.64-.33L24.17,2.82Zm8,17.07c-.32.66-.88,1.16-1.57,1.4l-19.78,6.89c-1.43.5-3-.26-3.5-1.69L2.7,13.21c-.11-.31-.15-.63-.15-.95l11.03,4.21c.73.28,1.49.41,2.23.41,2.15,0,4.21-1.12,5.37-3.06l6.01-10.14c.2.24.37.52.48.83l4.62,13.27c.24.69.2,1.44-.12,2.1Z"/></svg>