<?xml version="1.0" encoding="UTF-8"?><svg id="Layer_1" xmlns="http://www.w3.org/2000/svg" viewBox="0 0 30 30"><defs><style>.cls-1{fill:#fe0000;}</style></defs><path class="cls-1" d="m22.04,29.75c-.9,0-1.88-.12-2.92-.37-.06-.01-.11-.03-.16-.05-4.1-1.59-7.93-4.09-11.07-7.24-3.16-3.14-5.59-6.86-7.23-11.06-.02-.05-.03-.09-.04-.14C-.11,8.08.24,5.12,1.61,2.56c.24-.52.68-1.03,1.26-1.48.61-.43,1.25-.69,1.89-.79.68-.1,1.37-.03,2.01.19.56.17,1.16.53,1.66,1.04l2.7,2.84c.55.52.97,1.27,1.17,2.11.17.88.09,1.73-.21,2.5-.33.72-.77,1.35-1.32,1.91-.12.16-.2.35-.23.54-.03.21-.01.44.07.64.04.1.07.22.08.33.67,1.6,1.61,3.01,2.79,4.2,1.2,1.22,2.59,2.18,4.17,2.86.1,0,.19.03.29.06.26.09.48.11.67.09.19-.03.37-.11.53-.22.55-.56,1.18-1.01,1.86-1.32.84-.34,1.7-.43,2.53-.27.87.17,1.64.57,2.23,1.16l2.78,2.74c.29.29.54.63.74.99.03.05.05.1.07.16.21.47.42.97.42,1.56.03.47-.04,1.02-.19,1.52-.2.56-.45,1.02-.77,1.44-.02.03-.04.05-.07.08-.41.44-.82.76-1.28.99-1.7.89-3.53,1.35-5.39,1.35Zm-2.26-2.78c.82.19,1.58.28,2.26.28,1.46,0,2.89-.36,4.25-1.07.2-.1.36-.23.55-.42.14-.19.25-.39.34-.64.05-.17.08-.42.07-.66,0-.17-.13-.45-.2-.61,0-.01-.01-.03-.02-.04-.08-.13-.18-.26-.27-.36l-2.78-2.74c-.24-.24-.57-.4-.93-.47-.36-.07-.72-.03-1.07.11-.37.17-.76.46-1.11.83-.04.04-.08.08-.13.12-.51.41-1.12.67-1.75.78-.52.08-1.07.04-1.64-.12-.15,0-.3-.04-.45-.09-1.97-.82-3.72-1.99-5.2-3.5-1.47-1.47-2.62-3.23-3.42-5.23-.05-.12-.08-.25-.09-.38-.17-.54-.21-1.12-.12-1.7.1-.64.37-1.25.78-1.76.03-.04.06-.07.09-.1.37-.37.66-.77.85-1.19.1-.26.13-.63.06-1-.07-.31-.25-.64-.49-.86l-2.72-2.86c-.19-.19-.42-.34-.64-.41-.31-.11-.6-.13-.88-.1-.24.04-.51.15-.76.32-.23.17-.42.39-.51.59-1.09,2.04-1.37,4.33-.82,6.51,1.5,3.84,3.74,7.24,6.64,10.12,2.88,2.88,6.38,5.18,10.12,6.65Z"/></svg>