<svg width="29" height="35" viewBox="0 0 29 35" fill="none" xmlns="http://www.w3.org/2000/svg">
<path d="M14.3642 17.3327C16.0275 17.3327 17.3758 15.9959 17.3758 14.3467C17.3758 12.6976 16.0275 11.3607 14.3642 11.3607C12.7009 11.3607 11.3525 12.6976 11.3525 14.3467C11.3525 15.9959 12.7009 17.3327 14.3642 17.3327Z" stroke="#FE0201" stroke-width="2.5" stroke-miterlimit="10"/>
<path d="M13.2631 32.5917C13.481 32.9971 13.904 33.25 14.3642 33.25C14.8245 33.25 15.2475 32.9971 15.4653 32.5917L18.9618 26.0846C23.6934 24.2624 27.0585 19.7082 27.0585 14.3468C27.0585 7.37578 21.3689 1.75 14.3642 1.75C7.35949 1.75 1.66992 7.37578 1.66992 14.3468C1.66992 19.6985 5.03673 24.2508 9.76585 26.0832L13.2631 32.5917Z" stroke="#FE0201" stroke-width="2.5" stroke-miterlimit="10" stroke-linejoin="round"/>
</svg>
