<?xml version="1.0" encoding="UTF-8"?><svg id="Layer_1" xmlns="http://www.w3.org/2000/svg" viewBox="0 0 21 16"><defs><style>.cls-1{fill:#fe0000;}</style></defs><circle class="cls-1" cx="2" cy="2" r="2"/><path class="cls-1" d="m8,1h12c.55,0,1,.45,1,1h0c0,.55-.45,1-1,1h-12c-.55,0-1-.45-1-1h0c0-.55.45-1,1-1Z"/><circle class="cls-1" cx="2" cy="8" r="2"/><path class="cls-1" d="m8,7h12c.55,0,1,.45,1,1h0c0,.55-.45,1-1,1h-12c-.55,0-1-.45-1-1h0c0-.55.45-1,1-1Z"/><circle class="cls-1" cx="2" cy="14" r="2"/><path class="cls-1" d="m8,13h12c.55,0,1,.45,1,1h0c0,.55-.45,1-1,1h-12c-.55,0-1-.45-1-1h0c0-.55.45-1,1-1Z"/></svg>