<?xml version="1.0" encoding="UTF-8"?><svg id="Layer_1" xmlns="http://www.w3.org/2000/svg" viewBox="0 0 18 18"><defs><style>.cls-1{fill:#fe0000;}</style></defs><path class="cls-1" d="m9,0C4.04,0,0,4.04,0,9s4.04,9,9,9,9-4.04,9-9S13.96,0,9,0Zm6.92,8h-2.96c-.1-2.02-.48-3.9-1.13-5.36,0-.02-.01-.03-.02-.04,2.17.96,3.76,2.98,4.11,5.41Zm-6.74,7.84c-.09.09-.15.13-.17.15-.03-.02-.1-.06-.19-.15-.16-.15-.48-.52-.82-1.29-.53-1.2-.86-2.82-.96-4.55h3.91c-.1,1.73-.42,3.35-.96,4.55-.34.77-.66,1.14-.82,1.29Zm-2.14-7.84c.1-1.73.42-3.35.96-4.55.34-.77.66-1.14.82-1.29.09-.09.15-.13.17-.15.03.02.1.06.19.15.16.15.48.52.82,1.29.53,1.2.86,2.82.96,4.55h-3.91Zm-.85-5.41s-.01.03-.02.04c-.65,1.46-1.03,3.34-1.13,5.36h-2.96c.35-2.43,1.94-4.45,4.11-5.41Zm-4.11,7.41h2.96c.1,2.02.48,3.9,1.13,5.36,0,.02.01.03.02.04-2.17-.96-3.76-2.98-4.11-5.41Zm9.73,5.41s.01-.03.02-.04c.65-1.46,1.03-3.34,1.13-5.36h2.96c-.35,2.43-1.94,4.45-4.11,5.41Z"/></svg>