<?xml version="1.0" encoding="UTF-8"?><svg id="Layer_1" xmlns="http://www.w3.org/2000/svg" viewBox="0 0 17 19"><defs><style>.cls-1{fill:#fe0201;}</style></defs><path class="cls-1" d="m11.38,10.54c1.67-.99,2.79-2.8,2.79-4.87,0-3.13-2.54-5.67-5.67-5.67S2.83,2.54,2.83,5.67c0,2.07,1.12,3.89,2.79,4.88C2.36,11.8.01,15.11.01,19h2c0-3.86,2.91-7,6.49-7s6.49,3.14,6.49,7h2c0-3.89-2.34-7.2-5.61-8.46Zm-2.88-8.54c2.02,0,3.67,1.65,3.67,3.67s-1.65,3.67-3.67,3.67-3.67-1.65-3.67-3.67,1.65-3.67,3.67-3.67Z"/></svg>