<?xml version="1.0" encoding="UTF-8"?><svg id="Layer_1" xmlns="http://www.w3.org/2000/svg" viewBox="0 0 38 32"><defs><style>.cls-1{fill:#fe0000;}</style></defs><path class="cls-1" d="m37.7,24.26l-2.12-2.12-5.66,5.66-2.12-2.12,5.66-5.66-2.12-2.12-5.66,5.66-5.03-5.03c1.54-2,2.38-4.43,2.38-6.99,0-3.07-1.2-5.96-3.37-8.13C15.19-1.08,7.89-1.08,3.41,3.4,1.23,5.57.04,8.46.04,11.53s1.2,5.96,3.37,8.13c2.17,2.17,5.06,3.37,8.13,3.37,2.56,0,5-.84,6.99-2.38l11.39,11.39,7.78-7.78ZM5.53,17.54c-3.31-3.31-3.31-8.71,0-12.02,3.31-3.31,8.71-3.31,12.02,0,3.31,3.31,3.31,8.71,0,12.02-3.31,3.31-8.71,3.31-12.02,0Z"/></svg>