<?xml version="1.0" encoding="UTF-8"?><svg id="Layer_1" xmlns="http://www.w3.org/2000/svg" viewBox="0 0 25 24"><path d="m16.5,14.07c-.91-.71-1.93-1.25-3.02-1.61,2.03-1.14,3.4-3.3,3.4-5.78C16.89,3,13.88.02,10.18.02S3.47,3,3.47,6.67c0,2.48,1.38,4.65,3.42,5.79C2.85,13.82-.07,17.61-.07,22.07H1.93c0-4.5,3.7-8.16,8.25-8.16,1.84,0,3.65.62,5.1,1.74l1.23-1.58ZM5.47,6.67c0-2.56,2.11-4.65,4.71-4.65s4.71,2.09,4.71,4.66-1.95,4.48-4.4,4.64h-.31c-2.6,0-4.71-2.09-4.71-4.65Z"/><polygon points="25 18 21 18 21 14 19 14 19 18 15 18 15 20 19 20 19 24 21 24 21 20 25 20 25 18"/></svg>