<?xml version="1.0" encoding="UTF-8"?><svg id="Layer_1" xmlns="http://www.w3.org/2000/svg" viewBox="0 0 20 23"><path d="m20.06,11.33c0-4.22-2.68-8.01-6.67-9.42l-.67,1.88c3.19,1.13,5.33,4.16,5.33,7.54,0,3.07-1.79,5.84-4.51,7.17l.57-2.93-1.96-.38-1.2,6.21,6.27,1.21.38-1.96-2.77-.53c3.18-1.73,5.23-5.09,5.23-8.78Z"/><path d="m2,2.38l3.05.31C2.01,4.46.06,7.73.06,11.34.06,15.56,2.74,19.34,6.73,20.76l.67-1.88c-3.19-1.13-5.33-4.16-5.33-7.54,0-2.95,1.63-5.62,4.15-7.01l-.29,2.8,1.99.2.64-6.29L2.2.39l-.2,1.99Z"/></svg>