<?xml version="1.0" encoding="UTF-8"?><svg id="Layer_1" xmlns="http://www.w3.org/2000/svg" viewBox="0 0 24 23"><defs><style>.cls-1{fill:#fe0000;}</style></defs><path class="cls-1" d="m21,3h-3V1c0-.55-.45-1-1-1s-1,.45-1,1v2h-8V1c0-.55-.45-1-1-1s-1,.45-1,1v2h-3C1.35,3,0,4.35,0,6v14C0,21.65,1.35,23,3,23h18c1.65,0,3-1.35,3-3V6c0-1.65-1.35-3-3-3Zm1,17c0,.55-.45,1-1,1H3c-.55,0-1-.45-1-1V6c0-.55.45-1,1-1h3v2c0,.55.45,1,1,1s1-.45,1-1v-2h8v2c0,.55.45,1,1,1s1-.45,1-1v-2h3c.55,0,1,.45,1,1v14Z"/><path class="cls-1" d="m16,12h-3v-3c0-.55-.45-1-1-1s-1,.45-1,1v3h-3c-.55,0-1,.45-1,1s.45,1,1,1h3v3c0,.55.45,1,1,1s1-.45,1-1v-3h3c.55,0,1-.45,1-1s-.45-1-1-1Z"/></svg>