<svg width="100" height="101" viewBox="0 0 100 101" fill="none" xmlns="http://www.w3.org/2000/svg">
<rect y="0.0045166" width="100" height="100" rx="50" fill="#F5F5F5"/>
<path d="M43 39.5V29.5C43 28.6716 42.3284 28 41.5 28C40.6716 28 40 28.6716 40 29.5V39.5C40 40.3284 40.6716 41 41.5 41C42.3284 41 43 40.3284 43 39.5Z" fill="#FE0000"/>
<path d="M61 39.5V29.5C61 28.6716 60.3284 28 59.5 28C58.6716 28 58 28.6716 58 29.5V39.5C58 40.3284 58.6716 41 59.5 41C60.3284 41 61 40.3284 61 39.5Z" fill="#FE0000"/>
<rect x="49" y="42" width="3" height="15" rx="1.5" fill="#FE0000"/>
<rect x="43" y="51" width="3" height="15" rx="1.5" transform="rotate(-90 43 51)" fill="#FE0000"/>
<rect x="32.5" y="34.5" width="35" height="29" rx="5.5" stroke="#FE0000" stroke-width="3"/>
<rect x="72.125" y="69.4634" width="2.82843" height="9.10808" rx="1.41422" transform="rotate(-45 72.125 69.4634)" fill="#FE0000"/>
<circle cx="65.9139" cy="61.9181" r="9.61393" transform="rotate(-45 65.9139 61.9181)" fill="#F5F5F5" stroke="#FE0000" stroke-width="2.8"/>
</svg>
